<svg xmlns="http://www.w3.org/2000/svg" viewBox="0 0 512 512" role="img" aria-label="icon">
<defs>
  <radialGradient id="bg" cx="50%" cy="42%" r="78%">
    <stop offset="0" stop-color="#2b2856"/>
    <stop offset="0.55" stop-color="#1b1937"/>
    <stop offset="1" stop-color="#0e0d20"/>
  </radialGradient>
  <linearGradient id="gold" x1="0" y1="0" x2="0" y2="1">
    <stop offset="0" stop-color="#f7e9ad"/>
    <stop offset="0.5" stop-color="#d8b863"/>
    <stop offset="1" stop-color="#a37e30"/>
  </linearGradient>
  <radialGradient id="spark" cx="50%" cy="50%" r="50%">
    <stop offset="0" stop-color="#fff8e0"/>
    <stop offset="0.4" stop-color="#f4e3a0"/>
    <stop offset="1" stop-color="#caa241"/>
  </radialGradient>
</defs>
<circle cx="256" cy="256" r="246" fill="url(#bg)"/>
<polygon points="408.0,261.0 408.0,251.0 480.0,256.0" fill="url(#gold)" fill-opacity="0.8"/>
<polygon points="410.37,289.76 411.55,283.88 450.2,294.63" fill="url(#gold)" fill-opacity="0.45"/>
<polygon points="394.52,318.79 398.34,309.55 462.95,341.72" fill="url(#gold)" fill-opacity="0.8"/>
<polygon points="385.7,346.27 389.04,341.29 420.63,366.0" fill="url(#gold)" fill-opacity="0.45"/>
<polygon points="359.94,367.02 367.02,359.94 414.39,414.39" fill="url(#gold)" fill-opacity="0.8"/>
<polygon points="341.29,389.04 346.27,385.7 366.0,420.63" fill="url(#gold)" fill-opacity="0.45"/>
<polygon points="309.55,398.34 318.79,394.52 341.72,462.95" fill="url(#gold)" fill-opacity="0.8"/>
<polygon points="283.88,411.55 289.76,410.37 294.63,450.2" fill="url(#gold)" fill-opacity="0.45"/>
<polygon points="251.0,408.0 261.0,408.0 256.0,480.0" fill="url(#gold)" fill-opacity="0.8"/>
<polygon points="222.24,410.37 228.12,411.55 217.37,450.2" fill="url(#gold)" fill-opacity="0.45"/>
<polygon points="193.21,394.52 202.45,398.34 170.28,462.95" fill="url(#gold)" fill-opacity="0.8"/>
<polygon points="165.73,385.7 170.71,389.04 146.0,420.63" fill="url(#gold)" fill-opacity="0.45"/>
<polygon points="144.98,359.94 152.06,367.02 97.61,414.39" fill="url(#gold)" fill-opacity="0.8"/>
<polygon points="122.96,341.29 126.3,346.27 91.37,366.0" fill="url(#gold)" fill-opacity="0.45"/>
<polygon points="113.66,309.55 117.48,318.79 49.05,341.72" fill="url(#gold)" fill-opacity="0.8"/>
<polygon points="100.45,283.88 101.63,289.76 61.8,294.63" fill="url(#gold)" fill-opacity="0.45"/>
<polygon points="104.0,251.0 104.0,261.0 32.0,256.0" fill="url(#gold)" fill-opacity="0.8"/>
<polygon points="101.63,222.24 100.45,228.12 61.8,217.37" fill="url(#gold)" fill-opacity="0.45"/>
<polygon points="117.48,193.21 113.66,202.45 49.05,170.28" fill="url(#gold)" fill-opacity="0.8"/>
<polygon points="126.3,165.73 122.96,170.71 91.37,146.0" fill="url(#gold)" fill-opacity="0.45"/>
<polygon points="152.06,144.98 144.98,152.06 97.61,97.61" fill="url(#gold)" fill-opacity="0.8"/>
<polygon points="170.71,122.96 165.73,126.3 146.0,91.37" fill="url(#gold)" fill-opacity="0.45"/>
<polygon points="202.45,113.66 193.21,117.48 170.28,49.05" fill="url(#gold)" fill-opacity="0.8"/>
<polygon points="228.12,100.45 222.24,101.63 217.37,61.8" fill="url(#gold)" fill-opacity="0.45"/>
<polygon points="261.0,104.0 251.0,104.0 256.0,32.0" fill="url(#gold)" fill-opacity="0.8"/>
<polygon points="289.76,101.63 283.88,100.45 294.63,61.8" fill="url(#gold)" fill-opacity="0.45"/>
<polygon points="318.79,117.48 309.55,113.66 341.72,49.05" fill="url(#gold)" fill-opacity="0.8"/>
<polygon points="346.27,126.3 341.29,122.96 366.0,91.37" fill="url(#gold)" fill-opacity="0.45"/>
<polygon points="367.02,152.06 359.94,144.98 414.39,97.61" fill="url(#gold)" fill-opacity="0.8"/>
<polygon points="389.04,170.71 385.7,165.73 420.63,146.0" fill="url(#gold)" fill-opacity="0.45"/>
<polygon points="398.34,202.45 394.52,193.21 462.95,170.28" fill="url(#gold)" fill-opacity="0.8"/>
<polygon points="411.55,228.12 410.37,222.24 450.2,217.37" fill="url(#gold)" fill-opacity="0.45"/>
<path d="M 143.4,256 A 130 130 0 0 1 368.6,256 A 130 130 0 0 1 143.4,256 Z" fill="#15142c" stroke="url(#gold)" stroke-width="6"/>
<circle cx="256" cy="256" r="54" fill="#1b1937" stroke="url(#gold)" stroke-width="4"/>
<line x1="286.0" y1="256.0" x2="308.0" y2="256.0" stroke="url(#gold)" stroke-opacity="0.4" stroke-width="1"/>
<line x1="284.98" y1="263.76" x2="306.23" y2="269.46" stroke="url(#gold)" stroke-opacity="0.4" stroke-width="1"/>
<line x1="281.98" y1="271.0" x2="301.03" y2="282.0" stroke="url(#gold)" stroke-opacity="0.4" stroke-width="1"/>
<line x1="277.21" y1="277.21" x2="292.77" y2="292.77" stroke="url(#gold)" stroke-opacity="0.4" stroke-width="1"/>
<line x1="271.0" y1="281.98" x2="282.0" y2="301.03" stroke="url(#gold)" stroke-opacity="0.4" stroke-width="1"/>
<line x1="263.76" y1="284.98" x2="269.46" y2="306.23" stroke="url(#gold)" stroke-opacity="0.4" stroke-width="1"/>
<line x1="256.0" y1="286.0" x2="256.0" y2="308.0" stroke="url(#gold)" stroke-opacity="0.4" stroke-width="1"/>
<line x1="248.24" y1="284.98" x2="242.54" y2="306.23" stroke="url(#gold)" stroke-opacity="0.4" stroke-width="1"/>
<line x1="241.0" y1="281.98" x2="230.0" y2="301.03" stroke="url(#gold)" stroke-opacity="0.4" stroke-width="1"/>
<line x1="234.79" y1="277.21" x2="219.23" y2="292.77" stroke="url(#gold)" stroke-opacity="0.4" stroke-width="1"/>
<line x1="230.02" y1="271.0" x2="210.97" y2="282.0" stroke="url(#gold)" stroke-opacity="0.4" stroke-width="1"/>
<line x1="227.02" y1="263.76" x2="205.77" y2="269.46" stroke="url(#gold)" stroke-opacity="0.4" stroke-width="1"/>
<line x1="226.0" y1="256.0" x2="204.0" y2="256.0" stroke="url(#gold)" stroke-opacity="0.4" stroke-width="1"/>
<line x1="227.02" y1="248.24" x2="205.77" y2="242.54" stroke="url(#gold)" stroke-opacity="0.4" stroke-width="1"/>
<line x1="230.02" y1="241.0" x2="210.97" y2="230.0" stroke="url(#gold)" stroke-opacity="0.4" stroke-width="1"/>
<line x1="234.79" y1="234.79" x2="219.23" y2="219.23" stroke="url(#gold)" stroke-opacity="0.4" stroke-width="1"/>
<line x1="241.0" y1="230.02" x2="230.0" y2="210.97" stroke="url(#gold)" stroke-opacity="0.4" stroke-width="1"/>
<line x1="248.24" y1="227.02" x2="242.54" y2="205.77" stroke="url(#gold)" stroke-opacity="0.4" stroke-width="1"/>
<line x1="256.0" y1="226.0" x2="256.0" y2="204.0" stroke="url(#gold)" stroke-opacity="0.4" stroke-width="1"/>
<line x1="263.76" y1="227.02" x2="269.46" y2="205.77" stroke="url(#gold)" stroke-opacity="0.4" stroke-width="1"/>
<line x1="271.0" y1="230.02" x2="282.0" y2="210.97" stroke="url(#gold)" stroke-opacity="0.4" stroke-width="1"/>
<line x1="277.21" y1="234.79" x2="292.77" y2="219.23" stroke="url(#gold)" stroke-opacity="0.4" stroke-width="1"/>
<line x1="281.98" y1="241.0" x2="301.03" y2="230.0" stroke="url(#gold)" stroke-opacity="0.4" stroke-width="1"/>
<line x1="284.98" y1="248.24" x2="306.23" y2="242.54" stroke="url(#gold)" stroke-opacity="0.4" stroke-width="1"/>
<circle cx="256" cy="256" r="24" fill="#0e0d20"/>
<circle cx="256" cy="256" r="9" fill="url(#spark)"/>
<circle cx="248" cy="248" r="3" fill="#fff8e0" fill-opacity="0.9"/>
</svg>
