<svg xmlns="http://www.w3.org/2000/svg" viewBox="0 0 512 512" role="img" aria-label="icon">
<defs>
  <radialGradient id="bg" cx="50%" cy="42%" r="78%">
    <stop offset="0" stop-color="#2b2856"/>
    <stop offset="0.55" stop-color="#1b1937"/>
    <stop offset="1" stop-color="#0e0d20"/>
  </radialGradient>
  <linearGradient id="gold" x1="0" y1="0" x2="0" y2="1">
    <stop offset="0" stop-color="#f7e9ad"/>
    <stop offset="0.5" stop-color="#d8b863"/>
    <stop offset="1" stop-color="#a37e30"/>
  </linearGradient>
  <radialGradient id="spark" cx="50%" cy="50%" r="50%">
    <stop offset="0" stop-color="#fff8e0"/>
    <stop offset="0.4" stop-color="#f4e3a0"/>
    <stop offset="1" stop-color="#caa241"/>
  </radialGradient>
</defs>
<circle cx="256" cy="256" r="246" fill="url(#bg)"/>
<line x1="282.0" y1="256.0" x2="452.0" y2="256.0" stroke="url(#gold)" stroke-opacity="0.22" stroke-width="1.4"/>
<line x1="281.11" y1="262.73" x2="445.32" y2="306.73" stroke="url(#gold)" stroke-opacity="0.22" stroke-width="1.4"/>
<line x1="278.52" y1="269.0" x2="425.74" y2="354.0" stroke="url(#gold)" stroke-opacity="0.22" stroke-width="1.4"/>
<line x1="274.38" y1="274.38" x2="394.59" y2="394.59" stroke="url(#gold)" stroke-opacity="0.22" stroke-width="1.4"/>
<line x1="269.0" y1="278.52" x2="354.0" y2="425.74" stroke="url(#gold)" stroke-opacity="0.22" stroke-width="1.4"/>
<line x1="262.73" y1="281.11" x2="306.73" y2="445.32" stroke="url(#gold)" stroke-opacity="0.22" stroke-width="1.4"/>
<line x1="256.0" y1="282.0" x2="256.0" y2="452.0" stroke="url(#gold)" stroke-opacity="0.22" stroke-width="1.4"/>
<line x1="249.27" y1="281.11" x2="205.27" y2="445.32" stroke="url(#gold)" stroke-opacity="0.22" stroke-width="1.4"/>
<line x1="243.0" y1="278.52" x2="158.0" y2="425.74" stroke="url(#gold)" stroke-opacity="0.22" stroke-width="1.4"/>
<line x1="237.62" y1="274.38" x2="117.41" y2="394.59" stroke="url(#gold)" stroke-opacity="0.22" stroke-width="1.4"/>
<line x1="233.48" y1="269.0" x2="86.26" y2="354.0" stroke="url(#gold)" stroke-opacity="0.22" stroke-width="1.4"/>
<line x1="230.89" y1="262.73" x2="66.68" y2="306.73" stroke="url(#gold)" stroke-opacity="0.22" stroke-width="1.4"/>
<line x1="230.0" y1="256.0" x2="60.0" y2="256.0" stroke="url(#gold)" stroke-opacity="0.22" stroke-width="1.4"/>
<line x1="230.89" y1="249.27" x2="66.68" y2="205.27" stroke="url(#gold)" stroke-opacity="0.22" stroke-width="1.4"/>
<line x1="233.48" y1="243.0" x2="86.26" y2="158.0" stroke="url(#gold)" stroke-opacity="0.22" stroke-width="1.4"/>
<line x1="237.62" y1="237.62" x2="117.41" y2="117.41" stroke="url(#gold)" stroke-opacity="0.22" stroke-width="1.4"/>
<line x1="243.0" y1="233.48" x2="158.0" y2="86.26" stroke="url(#gold)" stroke-opacity="0.22" stroke-width="1.4"/>
<line x1="249.27" y1="230.89" x2="205.27" y2="66.68" stroke="url(#gold)" stroke-opacity="0.22" stroke-width="1.4"/>
<line x1="256.0" y1="230.0" x2="256.0" y2="60.0" stroke="url(#gold)" stroke-opacity="0.22" stroke-width="1.4"/>
<line x1="262.73" y1="230.89" x2="306.73" y2="66.68" stroke="url(#gold)" stroke-opacity="0.22" stroke-width="1.4"/>
<line x1="269.0" y1="233.48" x2="354.0" y2="86.26" stroke="url(#gold)" stroke-opacity="0.22" stroke-width="1.4"/>
<line x1="274.38" y1="237.62" x2="394.59" y2="117.41" stroke="url(#gold)" stroke-opacity="0.22" stroke-width="1.4"/>
<line x1="278.52" y1="243.0" x2="425.74" y2="158.0" stroke="url(#gold)" stroke-opacity="0.22" stroke-width="1.4"/>
<line x1="281.11" y1="249.27" x2="445.32" y2="205.27" stroke="url(#gold)" stroke-opacity="0.22" stroke-width="1.4"/>
<circle cx="256" cy="256" r="48" fill="none" stroke="url(#gold)" stroke-opacity="0.95" stroke-width="3.2"/>
<circle cx="256" cy="256" r="84" fill="none" stroke="url(#gold)" stroke-opacity="0.7" stroke-width="2.6"/>
<circle cx="256" cy="256" r="124" fill="none" stroke="url(#gold)" stroke-opacity="0.55" stroke-width="2.2"/>
<circle cx="256" cy="256" r="166" fill="none" stroke="url(#gold)" stroke-opacity="0.42" stroke-width="1.8"/>
<circle cx="256" cy="256" r="200" fill="none" stroke="url(#gold)" stroke-opacity="0.85" stroke-width="3"/>
<circle cx="256" cy="256" r="208" fill="none" stroke="url(#gold)" stroke-opacity="0.35" stroke-width="1.2"/>
<circle cx="456.0" cy="256.0" r="3.4" fill="url(#gold)" fill-opacity="0.9"/>
<circle cx="451.63" cy="297.58" r="3.4" fill="url(#gold)" fill-opacity="0.9"/>
<circle cx="438.71" cy="337.35" r="3.4" fill="url(#gold)" fill-opacity="0.9"/>
<circle cx="417.8" cy="373.56" r="3.4" fill="url(#gold)" fill-opacity="0.9"/>
<circle cx="389.83" cy="404.63" r="3.4" fill="url(#gold)" fill-opacity="0.9"/>
<circle cx="356.0" cy="429.21" r="3.4" fill="url(#gold)" fill-opacity="0.9"/>
<circle cx="317.8" cy="446.21" r="3.4" fill="url(#gold)" fill-opacity="0.9"/>
<circle cx="276.91" cy="454.9" r="3.4" fill="url(#gold)" fill-opacity="0.9"/>
<circle cx="235.09" cy="454.9" r="3.4" fill="url(#gold)" fill-opacity="0.9"/>
<circle cx="194.2" cy="446.21" r="3.4" fill="url(#gold)" fill-opacity="0.9"/>
<circle cx="156.0" cy="429.21" r="3.4" fill="url(#gold)" fill-opacity="0.9"/>
<circle cx="122.17" cy="404.63" r="3.4" fill="url(#gold)" fill-opacity="0.9"/>
<circle cx="94.2" cy="373.56" r="3.4" fill="url(#gold)" fill-opacity="0.9"/>
<circle cx="73.29" cy="337.35" r="3.4" fill="url(#gold)" fill-opacity="0.9"/>
<circle cx="60.37" cy="297.58" r="3.4" fill="url(#gold)" fill-opacity="0.9"/>
<circle cx="56.0" cy="256.0" r="3.4" fill="url(#gold)" fill-opacity="0.9"/>
<circle cx="60.37" cy="214.42" r="3.4" fill="url(#gold)" fill-opacity="0.9"/>
<circle cx="73.29" cy="174.65" r="3.4" fill="url(#gold)" fill-opacity="0.9"/>
<circle cx="94.2" cy="138.44" r="3.4" fill="url(#gold)" fill-opacity="0.9"/>
<circle cx="122.17" cy="107.37" r="3.4" fill="url(#gold)" fill-opacity="0.9"/>
<circle cx="156.0" cy="82.79" r="3.4" fill="url(#gold)" fill-opacity="0.9"/>
<circle cx="194.2" cy="65.79" r="3.4" fill="url(#gold)" fill-opacity="0.9"/>
<circle cx="235.09" cy="57.1" r="3.4" fill="url(#gold)" fill-opacity="0.9"/>
<circle cx="276.91" cy="57.1" r="3.4" fill="url(#gold)" fill-opacity="0.9"/>
<circle cx="317.8" cy="65.79" r="3.4" fill="url(#gold)" fill-opacity="0.9"/>
<circle cx="356.0" cy="82.79" r="3.4" fill="url(#gold)" fill-opacity="0.9"/>
<circle cx="389.83" cy="107.37" r="3.4" fill="url(#gold)" fill-opacity="0.9"/>
<circle cx="417.8" cy="138.44" r="3.4" fill="url(#gold)" fill-opacity="0.9"/>
<circle cx="438.71" cy="174.65" r="3.4" fill="url(#gold)" fill-opacity="0.9"/>
<circle cx="451.63" cy="214.42" r="3.4" fill="url(#gold)" fill-opacity="0.9"/>
<circle cx="256" cy="256" r="30" fill="url(#spark)" fill-opacity="0.35"/>
<circle cx="256" cy="256" r="14" fill="url(#spark)"/>
<circle cx="256" cy="256" r="14" fill="none" stroke="#fff8e0" stroke-opacity="0.6" stroke-width="1"/>
</svg>
