<svg xmlns="http://www.w3.org/2000/svg" viewBox="0 0 512 512" role="img" aria-label="icon">
<defs>
  <radialGradient id="bg" cx="50%" cy="42%" r="78%">
    <stop offset="0" stop-color="#2b2856"/>
    <stop offset="0.55" stop-color="#1b1937"/>
    <stop offset="1" stop-color="#0e0d20"/>
  </radialGradient>
  <linearGradient id="gold" x1="0" y1="0" x2="0" y2="1">
    <stop offset="0" stop-color="#f7e9ad"/>
    <stop offset="0.5" stop-color="#d8b863"/>
    <stop offset="1" stop-color="#a37e30"/>
  </linearGradient>
  <radialGradient id="spark" cx="50%" cy="50%" r="50%">
    <stop offset="0" stop-color="#fff8e0"/>
    <stop offset="0.4" stop-color="#f4e3a0"/>
    <stop offset="1" stop-color="#caa241"/>
  </radialGradient>
</defs>
<circle cx="256" cy="256" r="246" fill="url(#bg)"/>
<circle cx="256" cy="256" r="232" fill="none" stroke="#efe4c6" stroke-opacity="0.18" stroke-width="1.5"/>
<circle cx="256" cy="256" r="150" fill="none" stroke="#efe4c6" stroke-opacity="0.12" stroke-width="1"/>
<path d="M 185.57,81.69 A 188 188 0 1 0 326.43,81.69" fill="none" stroke="url(#gold)" stroke-width="19" stroke-linecap="round"/>
<path d="M 185.57,81.69 A 188 188 0 1 0 326.43,81.69" fill="none" stroke="#7a5a22" stroke-opacity="0.5" stroke-width="2"/>
<path d="M 331.3,69.64 L 260.92,68.06 L 321.56,93.74 Z" fill="url(#gold)"/>
<circle cx="308.1" cy="74.32" r="2.6" fill="#1b1937"/>
<circle cx="185.57" cy="81.69" r="2" fill="#7a5a22" fill-opacity="0.6"/>
<circle cx="313.4" cy="117.42" r="3" fill="url(#gold)" fill-opacity="0.55"/>
<circle cx="394.58" cy="198.6" r="3" fill="url(#gold)" fill-opacity="0.55"/>
<circle cx="394.58" cy="313.4" r="3" fill="url(#gold)" fill-opacity="0.55"/>
<circle cx="313.4" cy="394.58" r="3" fill="url(#gold)" fill-opacity="0.55"/>
<circle cx="198.6" cy="394.58" r="3" fill="url(#gold)" fill-opacity="0.55"/>
<circle cx="117.42" cy="313.4" r="3" fill="url(#gold)" fill-opacity="0.55"/>
<circle cx="117.42" cy="198.6" r="3" fill="url(#gold)" fill-opacity="0.55"/>
<circle cx="198.6" cy="117.42" r="3" fill="url(#gold)" fill-opacity="0.55"/>
<polygon points="256.0,144.0 272.46,216.27 335.2,176.8 295.73,239.54 368.0,256.0 295.73,272.46 335.2,335.2 272.46,295.73 256.0,368.0 239.54,295.73 176.8,335.2 216.27,272.46 144.0,256.0 216.27,239.54 176.8,176.8 239.54,216.27" fill="url(#gold)" stroke="#7a5a22" stroke-opacity="0.4" stroke-width="1"/>
<circle cx="256" cy="256" r="34" fill="#15142c"/>
<circle cx="256" cy="256" r="34" fill="none" stroke="url(#gold)" stroke-width="2" stroke-opacity="0.7"/>
<circle cx="256" cy="256" r="9" fill="url(#spark)"/>
<line x1="256.0" y1="245.0" x2="256.0" y2="230.0" stroke="#f4e3a0" stroke-width="1.4" stroke-opacity="0.85"/>
<line x1="267.0" y1="256.0" x2="282.0" y2="256.0" stroke="#f4e3a0" stroke-width="1.4" stroke-opacity="0.85"/>
<line x1="256.0" y1="267.0" x2="256.0" y2="282.0" stroke="#f4e3a0" stroke-width="1.4" stroke-opacity="0.85"/>
<line x1="245.0" y1="256.0" x2="230.0" y2="256.0" stroke="#f4e3a0" stroke-width="1.4" stroke-opacity="0.85"/>
</svg>
